<?xml version="1.0" encoding="UTF-8"?>
<svg xmlns="http://www.w3.org/2000/svg" width="1200" height="400" viewBox="0 0 1200 400">
  <defs>
    <style><![CDATA[
      .axis { stroke:#2c3e50; stroke-width:2 }
      .line1 { stroke:#3498db; stroke-width:3; fill:none }
      .line2 { stroke:#9b59b6; stroke-width:3; fill:none }
      .dot { fill:#2c3e50 }
      .label { font: 16px Arial, sans-serif; fill:#2c3e50 }
      .title { font: bold 22px Arial, sans-serif; fill:#2c3e50 }
      .muted { font: 14px Arial, sans-serif; fill:#7f8c8d }
      .legend { font: 16px Arial, sans-serif; fill:#2c3e50 }
      .grid { stroke:#ecf0f1; stroke-width:1 }
    ]]></style>
  </defs>
  <rect width="100%" height="100%" fill="#ffffff"/>
  <text x="600" y="40" text-anchor="middle" class="title">Latency by Backend</text>
  <text x="600" y="68" text-anchor="middle" class="muted">Average request duration (ms)</text>

  <!-- Axes -->
  <line x1="120" y1="320" x2="1080" y2="320" class="axis"/>
  <line x1="120" y1="100" x2="120" y2="320" class="axis"/>

  <!-- Gridlines -->
  <g>
    <line x1="120" y1="280" x2="1080" y2="280" class="grid"/>
    <line x1="120" y1="240" x2="1080" y2="240" class="grid"/>
    <line x1="120" y1="200" x2="1080" y2="200" class="grid"/>
    <line x1="120" y1="160" x2="1080" y2="160" class="grid"/>
    <line x1="120" y1="120" x2="1080" y2="120" class="grid"/>
  </g>

  <!-- Lines (illustrative) -->
  <polyline class="line1" points="160,250 360,230 560,220 760,210 960,205"/>
  <polyline class="line2" points="160,290 360,270 560,260 760,255 960,250"/>
  <text x="980" y="210" class="legend">ONNX (CPU)</text>
  <text x="980" y="255" class="legend">Hosted</text>

  <!-- X labels -->
  <g class="label">
    <text x="160" y="345">warmup</text>
    <text x="360" y="345">t=1</text>
    <text x="560" y="345">t=2</text>
    <text x="760" y="345">t=3</text>
    <text x="960" y="345">t=4</text>
  </g>

  <text x="120" y="95" class="muted">Values illustrative for demo</text>
</svg>